<mxfile host="app.diagrams.net" modified="2023-07-26T11:20:02.667Z" agent="Mozilla/5.0 (Windows NT 10.0; Win64; x64) AppleWebKit/537.36 (KHTML, like Gecko) Chrome/114.0.0.0 Safari/537.36" etag="oIwmDgahrn7zOrd1hRw4" version="21.6.5" type="device">
  <diagram name="Page-1" id="efa7a0a1-bf9b-a30e-e6df-94a7791c09e9">
    <mxGraphModel dx="2625" dy="3566" grid="1" gridSize="10" guides="1" tooltips="1" connect="1" arrows="1" fold="1" page="1" pageScale="1" pageWidth="826" pageHeight="1169" background="none" math="0" shadow="0">
      <root>
        <mxCell id="0" />
        <mxCell id="1" parent="0" />
        <mxCell id="TB_R96-AKjUNl865deA2-138" value="" style="edgeStyle=orthogonalEdgeStyle;rounded=0;orthogonalLoop=1;jettySize=auto;html=1;labelBackgroundColor=none;strokeColor=#A8201A;fontColor=default;" parent="1" source="19" target="25" edge="1">
          <mxGeometry relative="1" as="geometry" />
        </mxCell>
        <mxCell id="19" value="&lt;p style=&quot;margin: 0px; margin-top: 4px; text-align: center; text-decoration: underline;&quot;&gt;&lt;strong&gt;Register Screen&lt;/strong&gt;&lt;/p&gt;&lt;hr&gt;&lt;p style=&quot;margin: 0px; margin-left: 8px;&quot;&gt;- Full name&lt;br&gt;- Phone&lt;/p&gt;&lt;p style=&quot;margin: 0px; margin-left: 8px;&quot;&gt;- Email&lt;/p&gt;&lt;p style=&quot;margin: 0px; margin-left: 8px;&quot;&gt;- Photo&lt;/p&gt;&lt;p style=&quot;margin: 0px; margin-left: 8px;&quot;&gt;- Password&lt;/p&gt;&lt;hr&gt;&amp;nbsp; &amp;nbsp;- verifyPhoneNumber();&lt;br&gt;&amp;nbsp; &amp;nbsp;- createAccount();" style="verticalAlign=top;align=left;overflow=fill;fontSize=12;fontFamily=Helvetica;html=1;strokeColor=#0F8B8D;shadow=1;fillColor=#FAE5C7;fontColor=#143642;labelBackgroundColor=none;" parent="1" vertex="1">
          <mxGeometry x="560" y="91.64" width="175" height="168.36" as="geometry" />
        </mxCell>
        <mxCell id="TB_R96-AKjUNl865deA2-122" value="" style="edgeStyle=orthogonalEdgeStyle;rounded=0;orthogonalLoop=1;jettySize=auto;html=1;labelBackgroundColor=none;strokeColor=#A8201A;fontColor=default;" parent="1" edge="1">
          <mxGeometry relative="1" as="geometry">
            <mxPoint x="565" y="407.5" as="sourcePoint" />
            <mxPoint x="465.0000000000002" y="407.5" as="targetPoint" />
          </mxGeometry>
        </mxCell>
        <mxCell id="TB_R96-AKjUNl865deA2-137" value="" style="edgeStyle=orthogonalEdgeStyle;rounded=0;orthogonalLoop=1;jettySize=auto;html=1;labelBackgroundColor=none;strokeColor=#A8201A;fontColor=default;" parent="1" source="21" target="TB_R96-AKjUNl865deA2-104" edge="1">
          <mxGeometry relative="1" as="geometry" />
        </mxCell>
        <mxCell id="21" value="&lt;p style=&quot;margin: 0px; margin-top: 4px; text-align: center; text-decoration: underline;&quot;&gt;&lt;strong&gt;Home Screen&lt;/strong&gt;&lt;/p&gt;&lt;hr&gt;&lt;p style=&quot;margin: 0px; margin-left: 8px;&quot;&gt;- List of categories&lt;/p&gt;&lt;p style=&quot;margin: 0px; margin-left: 8px;&quot;&gt;&lt;br&gt;&lt;/p&gt;&lt;hr&gt;&amp;nbsp; - showAllCategories();&lt;br&gt;&lt;hr&gt;&amp;nbsp;&amp;nbsp;&lt;b style=&quot;border-color: var(--border-color); text-align: center;&quot;&gt;More action&lt;br style=&quot;border-color: var(--border-color);&quot;&gt;&lt;/b&gt;&amp;nbsp; - User account button&amp;nbsp;&lt;br&gt;&amp;nbsp;&amp;nbsp;&lt;span style=&quot;background-color: initial;&quot;&gt;&lt;br&gt;&lt;/span&gt;&lt;span style=&quot;text-align: center;&quot;&gt;&lt;br&gt;&lt;/span&gt;&lt;span style=&quot;text-align: center;&quot;&gt;&amp;nbsp;&amp;nbsp;&lt;/span&gt;" style="verticalAlign=top;align=left;overflow=fill;fontSize=12;fontFamily=Helvetica;html=1;strokeColor=#0F8B8D;shadow=1;fillColor=#FAE5C7;fontColor=#143642;labelBackgroundColor=none;" parent="1" vertex="1">
          <mxGeometry x="565" y="285" width="165" height="165" as="geometry" />
        </mxCell>
        <mxCell id="TB_R96-AKjUNl865deA2-135" value="" style="edgeStyle=orthogonalEdgeStyle;rounded=0;orthogonalLoop=1;jettySize=auto;html=1;labelBackgroundColor=none;strokeColor=#A8201A;fontColor=default;" parent="1" source="23" target="TB_R96-AKjUNl865deA2-134" edge="1">
          <mxGeometry relative="1" as="geometry" />
        </mxCell>
        <mxCell id="23" value="&lt;p style=&quot;margin: 0px; margin-top: 4px; text-align: center; text-decoration: underline;&quot;&gt;&lt;strong&gt;Admin login&lt;/strong&gt;&lt;/p&gt;&lt;hr&gt;&lt;p style=&quot;margin: 0px; margin-left: 8px;&quot;&gt;- phone/email&lt;/p&gt;&lt;p style=&quot;margin: 0px; margin-left: 8px;&quot;&gt;- password&lt;/p&gt;&lt;hr&gt;&amp;nbsp; - adminLogin();&lt;p style=&quot;margin: 0px; margin-left: 8px;&quot;&gt;&lt;br&gt;&lt;/p&gt;" style="verticalAlign=top;align=left;overflow=fill;fontSize=12;fontFamily=Helvetica;html=1;strokeColor=#0F8B8D;shadow=1;fillColor=#FAE5C7;fontColor=#143642;labelBackgroundColor=none;" parent="1" vertex="1">
          <mxGeometry x="856.0800000000005" y="101.64000000000058" width="160" height="100" as="geometry" />
        </mxCell>
        <mxCell id="24" value="&lt;p style=&quot;margin: 0px; margin-top: 4px; text-align: center; text-decoration: underline;&quot;&gt;&lt;strong&gt;Course Screen&lt;/strong&gt;&lt;/p&gt;&lt;hr&gt;&lt;p style=&quot;margin: 0px; margin-left: 8px;&quot;&gt;-&amp;nbsp;course schedule&lt;/p&gt;&lt;p style=&quot;margin: 0px; margin-left: 8px;&quot;&gt;-&amp;nbsp;lessons&lt;/p&gt;&lt;p style=&quot;margin: 0px; margin-left: 8px;&quot;&gt;-&amp;nbsp;tutor&lt;/p&gt;&lt;p style=&quot;margin: 0px; margin-left: 8px;&quot;&gt;-&amp;nbsp;number of students registered&lt;/p&gt;&lt;p style=&quot;margin: 0px; margin-left: 8px;&quot;&gt;-&amp;nbsp;duration&lt;/p&gt;&lt;hr&gt;&amp;nbsp; &amp;nbsp;- courseDetails();&lt;br&gt;&lt;hr&gt;&lt;span style=&quot;border-color: var(--border-color); text-align: center;&quot;&gt;&lt;b&gt;&amp;nbsp; More action&lt;/b&gt;&lt;br&gt;&amp;nbsp; -&amp;nbsp;check if the user enrolled in &lt;br&gt;&amp;nbsp; another course&amp;nbsp;at the same time&lt;br&gt;&lt;b&gt;&amp;nbsp; &lt;/b&gt;&lt;/span&gt;&lt;span style=&quot;border-color: var(--border-color); text-align: center;&quot;&gt;- enroll now&lt;br&gt;&lt;/span&gt;" style="verticalAlign=top;align=left;overflow=fill;fontSize=12;fontFamily=Helvetica;html=1;strokeColor=#0F8B8D;shadow=1;fillColor=#FAE5C7;fontColor=#143642;labelBackgroundColor=none;" parent="1" vertex="1">
          <mxGeometry x="557" y="772" width="180" height="223.04" as="geometry" />
        </mxCell>
        <mxCell id="TB_R96-AKjUNl865deA2-125" value="" style="edgeStyle=orthogonalEdgeStyle;rounded=0;orthogonalLoop=1;jettySize=auto;html=1;exitX=0.5;exitY=1;exitDx=0;exitDy=0;labelBackgroundColor=none;strokeColor=#A8201A;fontColor=default;" parent="1" source="25" edge="1">
          <mxGeometry relative="1" as="geometry">
            <mxPoint x="390" y="195" as="sourcePoint" />
            <mxPoint x="565" y="295" as="targetPoint" />
            <Array as="points">
              <mxPoint x="390" y="190" />
              <mxPoint x="390" y="225" />
              <mxPoint x="495" y="225" />
              <mxPoint x="495" y="295" />
            </Array>
          </mxGeometry>
        </mxCell>
        <mxCell id="25" value="&lt;p style=&quot;margin: 0px; margin-top: 4px; text-align: center; text-decoration: underline;&quot;&gt;&lt;b&gt;Login Screen&lt;/b&gt;&lt;/p&gt;&lt;hr&gt;&lt;p style=&quot;margin: 0px; margin-left: 8px;&quot;&gt;&lt;span style=&quot;background-color: initial;&quot;&gt;- Phone&lt;/span&gt;&lt;/p&gt;&lt;p style=&quot;margin: 0px; margin-left: 8px;&quot;&gt;&lt;span style=&quot;background-color: initial;&quot;&gt;- Password&lt;/span&gt;&lt;br&gt;&lt;/p&gt;&lt;hr&gt;&amp;nbsp; &amp;nbsp;- login();&lt;br&gt;&lt;span style=&quot;border-color: var(--border-color); text-align: center;&quot;&gt;&lt;hr&gt;&amp;nbsp;&amp;nbsp;&lt;b&gt;More action&lt;br&gt;&lt;/b&gt;&amp;nbsp; - Forget password button&lt;br&gt;&amp;nbsp; - Register button&lt;br&gt;&lt;/span&gt;" style="verticalAlign=top;align=left;overflow=fill;fontSize=12;fontFamily=Helvetica;html=1;strokeColor=#0F8B8D;shadow=1;fillColor=#FAE5C7;fontColor=#143642;labelBackgroundColor=none;" parent="1" vertex="1">
          <mxGeometry x="305" y="21.64" width="160" height="168.36" as="geometry" />
        </mxCell>
        <mxCell id="NdXoDPrW2XtNnl9XYnpY-115" value="&lt;p style=&quot;margin: 0px; margin-top: 4px; text-align: center; text-decoration: underline;&quot;&gt;&lt;strong&gt;Account Screen&lt;/strong&gt;&lt;/p&gt;&lt;hr&gt;&lt;p style=&quot;margin: 0px; margin-left: 8px;&quot;&gt;- showUserProfile();&lt;/p&gt;&lt;hr&gt;&amp;nbsp;&amp;nbsp;&lt;b style=&quot;border-color: var(--border-color); text-align: center;&quot;&gt;More action&lt;br&gt;&amp;nbsp;&lt;/b&gt;&lt;span style=&quot;border-color: var(--border-color); text-align: center;&quot;&gt;- Edit account&lt;br&gt;&lt;/span&gt;&lt;b style=&quot;border-color: var(--border-color); text-align: center;&quot;&gt;&amp;nbsp;&lt;/b&gt;&lt;span style=&quot;border-color: var(--border-color); text-align: center;&quot;&gt;- Change password&amp;nbsp;&lt;br&gt;&amp;nbsp;- My Finished courses&lt;br&gt;&amp;nbsp;- Contact with owner&lt;br&gt;&amp;nbsp;- Current Course Progress.&lt;br&gt;&lt;br&gt;&lt;br&gt;&lt;b&gt;&amp;nbsp;&amp;nbsp;&lt;/b&gt;&lt;br&gt;&lt;/span&gt;&lt;p style=&quot;margin: 0px; margin-left: 8px;&quot;&gt;&lt;span style=&quot;background-color: initial;&quot;&gt;&amp;nbsp;&lt;/span&gt;&lt;/p&gt;" style="verticalAlign=top;align=left;overflow=fill;fontSize=12;fontFamily=Helvetica;html=1;strokeColor=#0F8B8D;shadow=1;fillColor=#FAE5C7;fontColor=#143642;labelBackgroundColor=none;" parent="1" vertex="1">
          <mxGeometry x="305" y="267.5" width="160" height="182.5" as="geometry" />
        </mxCell>
        <mxCell id="TB_R96-AKjUNl865deA2-118" value="" style="edgeStyle=orthogonalEdgeStyle;rounded=0;orthogonalLoop=1;jettySize=auto;html=1;labelBackgroundColor=none;strokeColor=#A8201A;fontColor=default;" parent="1" source="TB_R96-AKjUNl865deA2-104" target="24" edge="1">
          <mxGeometry relative="1" as="geometry" />
        </mxCell>
        <mxCell id="TB_R96-AKjUNl865deA2-104" value="&lt;p style=&quot;margin: 0px; margin-top: 4px; text-align: center; text-decoration: underline;&quot;&gt;&lt;b&gt;Single Category&lt;/b&gt;&lt;/p&gt;&lt;p style=&quot;margin: 0px; margin-top: 4px; text-align: center; text-decoration: underline;&quot;&gt;&lt;span style=&quot;background-color: initial; text-align: left;&quot;&gt;- single category&lt;/span&gt;&lt;/p&gt;&lt;hr&gt;&lt;div style=&quot;text-align: center;&quot;&gt;&lt;span style=&quot;background-color: initial;&quot;&gt;&amp;nbsp; - getCoursesOfCategory();&lt;/span&gt;&lt;/div&gt;" style="verticalAlign=top;align=left;overflow=fill;fontSize=12;fontFamily=Helvetica;html=1;strokeColor=#0F8B8D;shadow=1;fillColor=#FAE5C7;fontColor=#143642;labelBackgroundColor=none;" parent="1" vertex="1">
          <mxGeometry x="567" y="525" width="160" height="125" as="geometry" />
        </mxCell>
        <mxCell id="TB_R96-AKjUNl865deA2-140" value="" style="edgeStyle=orthogonalEdgeStyle;rounded=0;orthogonalLoop=1;jettySize=auto;html=1;labelBackgroundColor=none;strokeColor=#A8201A;fontColor=default;" parent="1" source="TB_R96-AKjUNl865deA2-134" target="TB_R96-AKjUNl865deA2-139" edge="1">
          <mxGeometry relative="1" as="geometry" />
        </mxCell>
        <mxCell id="TB_R96-AKjUNl865deA2-134" value="&lt;p style=&quot;margin: 0px; margin-top: 4px; text-align: center; text-decoration: underline;&quot;&gt;&lt;b&gt;Dashboard&lt;/b&gt;&lt;/p&gt;&lt;hr&gt;&lt;p style=&quot;margin: 0px; margin-left: 8px;&quot;&gt;-List of students.&lt;/p&gt;&lt;p style=&quot;margin: 0px; margin-left: 8px;&quot;&gt;-List of courses.&lt;/p&gt;&lt;hr&gt;&amp;nbsp; - showStudents();&lt;br&gt;&amp;nbsp; - showCourses();&lt;br&gt;&lt;p style=&quot;margin: 0px; margin-left: 8px;&quot;&gt;&lt;br&gt;&lt;/p&gt;" style="verticalAlign=top;align=left;overflow=fill;fontSize=12;fontFamily=Helvetica;html=1;strokeColor=#0F8B8D;shadow=1;fillColor=#FAE5C7;fontColor=#143642;labelBackgroundColor=none;" parent="1" vertex="1">
          <mxGeometry x="856.08" y="230" width="160" height="110" as="geometry" />
        </mxCell>
        <mxCell id="TB_R96-AKjUNl865deA2-136" value="&lt;p style=&quot;margin: 0px; margin-top: 4px; text-align: center; text-decoration: underline;&quot;&gt;&lt;b&gt;Student&lt;/b&gt;&lt;/p&gt;&lt;hr&gt;&amp;nbsp; - showStudentDetails();&lt;br&gt;&amp;nbsp; -showStudentCourseProgress();&lt;br&gt;&amp;nbsp; &amp;nbsp;&amp;nbsp;&lt;br&gt;&lt;p style=&quot;margin: 0px; margin-left: 8px;&quot;&gt;&lt;br&gt;&lt;/p&gt;" style="verticalAlign=top;align=left;overflow=fill;fontSize=12;fontFamily=Helvetica;html=1;strokeColor=#0F8B8D;shadow=1;fillColor=#FAE5C7;fontColor=#143642;labelBackgroundColor=none;" parent="1" vertex="1">
          <mxGeometry x="1099" y="120.5" width="201" height="103" as="geometry" />
        </mxCell>
        <mxCell id="TB_R96-AKjUNl865deA2-139" value="&lt;p style=&quot;margin: 0px; margin-top: 4px; text-align: center; text-decoration: underline;&quot;&gt;&lt;b&gt;Course&lt;/b&gt;&lt;/p&gt;&lt;hr&gt;&lt;p style=&quot;border-color: var(--border-color); margin: 0px 0px 0px 8px;&quot;&gt;-&amp;nbsp;course schedule&lt;/p&gt;&lt;p style=&quot;border-color: var(--border-color); margin: 0px 0px 0px 8px;&quot;&gt;-&amp;nbsp;lessons&lt;/p&gt;&lt;p style=&quot;border-color: var(--border-color); margin: 0px 0px 0px 8px;&quot;&gt;-&amp;nbsp;tutor&lt;/p&gt;&lt;p style=&quot;border-color: var(--border-color); margin: 0px 0px 0px 8px;&quot;&gt;-&amp;nbsp;number of students registered&lt;/p&gt;&lt;p style=&quot;margin: 0px; margin-left: 8px;&quot;&gt;-&amp;nbsp;duration.&lt;/p&gt;&lt;hr&gt;&amp;nbsp; - showCourseDetails();&lt;br&gt;&lt;span style=&quot;text-wrap: nowrap;&quot;&gt;&amp;nbsp; - addCourse;&lt;br&gt;&amp;nbsp; -editCourse();&lt;br&gt;&amp;nbsp; -deleteCourse();&lt;br&gt;&lt;/span&gt;" style="verticalAlign=top;align=left;overflow=fill;fontSize=12;fontFamily=Helvetica;html=1;strokeColor=#0F8B8D;shadow=1;fillColor=#FAE5C7;fontColor=#143642;labelBackgroundColor=none;" parent="1" vertex="1">
          <mxGeometry x="1109" y="300.5" width="181" height="179.5" as="geometry" />
        </mxCell>
        <mxCell id="TB_R96-AKjUNl865deA2-142" value="" style="edgeStyle=orthogonalEdgeStyle;rounded=0;orthogonalLoop=1;jettySize=auto;html=1;exitX=1;exitY=0.25;exitDx=0;exitDy=0;entryX=0;entryY=0.5;entryDx=0;entryDy=0;labelBackgroundColor=none;strokeColor=#A8201A;fontColor=default;" parent="1" source="TB_R96-AKjUNl865deA2-134" target="TB_R96-AKjUNl865deA2-136" edge="1">
          <mxGeometry relative="1" as="geometry">
            <mxPoint x="1026" y="295" as="sourcePoint" />
            <mxPoint x="1119" y="362" as="targetPoint" />
          </mxGeometry>
        </mxCell>
        <mxCell id="TB_R96-AKjUNl865deA2-145" value="" style="edgeStyle=orthogonalEdgeStyle;rounded=0;orthogonalLoop=1;jettySize=auto;html=1;labelBackgroundColor=none;strokeColor=#A8201A;fontColor=default;" parent="1" source="TB_R96-AKjUNl865deA2-143" target="TB_R96-AKjUNl865deA2-144" edge="1">
          <mxGeometry relative="1" as="geometry" />
        </mxCell>
        <mxCell id="TB_R96-AKjUNl865deA2-143" value="&lt;font style=&quot;font-size: 18px;&quot;&gt;Register&lt;/font&gt;" style="strokeWidth=2;html=1;shape=mxgraph.flowchart.start_2;whiteSpace=wrap;fillColor=#FAE5C7;strokeColor=#0F8B8D;labelBackgroundColor=none;fontColor=#143642;" parent="1" vertex="1">
          <mxGeometry x="580" y="-1210" width="100" height="100" as="geometry" />
        </mxCell>
        <mxCell id="TB_R96-AKjUNl865deA2-147" value="" style="edgeStyle=orthogonalEdgeStyle;rounded=0;orthogonalLoop=1;jettySize=auto;html=1;labelBackgroundColor=none;strokeColor=#A8201A;fontColor=default;" parent="1" edge="1">
          <mxGeometry relative="1" as="geometry">
            <mxPoint x="629" y="-970" as="sourcePoint" />
            <mxPoint x="629" y="-920" as="targetPoint" />
          </mxGeometry>
        </mxCell>
        <mxCell id="TB_R96-AKjUNl865deA2-144" value="&lt;font style=&quot;font-size: 18px;&quot;&gt;Login&lt;/font&gt;" style="ellipse;whiteSpace=wrap;html=1;fillColor=#FAE5C7;strokeColor=#0F8B8D;strokeWidth=2;labelBackgroundColor=none;fontColor=#143642;" parent="1" vertex="1">
          <mxGeometry x="580" y="-1060" width="100" height="90" as="geometry" />
        </mxCell>
        <mxCell id="TB_R96-AKjUNl865deA2-149" value="" style="edgeStyle=orthogonalEdgeStyle;rounded=0;orthogonalLoop=1;jettySize=auto;html=1;labelBackgroundColor=none;strokeColor=#A8201A;fontColor=default;" parent="1" source="TB_R96-AKjUNl865deA2-146" target="TB_R96-AKjUNl865deA2-148" edge="1">
          <mxGeometry relative="1" as="geometry" />
        </mxCell>
        <mxCell id="TB_R96-AKjUNl865deA2-150" value="&lt;font style=&quot;font-size: 18px;&quot;&gt;Yes&lt;/font&gt;" style="edgeLabel;html=1;align=center;verticalAlign=middle;resizable=0;points=[];labelBackgroundColor=none;fontColor=#143642;" parent="TB_R96-AKjUNl865deA2-149" vertex="1" connectable="0">
          <mxGeometry x="0.0645" y="-5" relative="1" as="geometry">
            <mxPoint y="1" as="offset" />
          </mxGeometry>
        </mxCell>
        <mxCell id="TB_R96-AKjUNl865deA2-182" value="" style="edgeStyle=orthogonalEdgeStyle;rounded=0;orthogonalLoop=1;jettySize=auto;html=1;strokeColor=#A8201A;fontColor=#143642;fillColor=#FAE5C7;" parent="1" source="TB_R96-AKjUNl865deA2-146" target="TB_R96-AKjUNl865deA2-144" edge="1">
          <mxGeometry relative="1" as="geometry" />
        </mxCell>
        <mxCell id="TB_R96-AKjUNl865deA2-183" value="&lt;font style=&quot;font-size: 18px;&quot;&gt;No&lt;/font&gt;" style="edgeLabel;html=1;align=center;verticalAlign=middle;resizable=0;points=[];fontColor=#143642;" parent="TB_R96-AKjUNl865deA2-182" vertex="1" connectable="0">
          <mxGeometry x="-0.0741" y="2" relative="1" as="geometry">
            <mxPoint as="offset" />
          </mxGeometry>
        </mxCell>
        <mxCell id="TB_R96-AKjUNl865deA2-146" value="Success?" style="rhombus;whiteSpace=wrap;html=1;fillColor=#FAE5C7;strokeColor=#0F8B8D;strokeWidth=2;labelBackgroundColor=none;fontColor=#143642;" parent="1" vertex="1">
          <mxGeometry x="591" y="-917" width="80" height="80" as="geometry" />
        </mxCell>
        <mxCell id="TB_R96-AKjUNl865deA2-152" value="" style="edgeStyle=orthogonalEdgeStyle;rounded=0;orthogonalLoop=1;jettySize=auto;html=1;labelBackgroundColor=none;strokeColor=#A8201A;fontColor=default;" parent="1" source="TB_R96-AKjUNl865deA2-148" target="TB_R96-AKjUNl865deA2-151" edge="1">
          <mxGeometry relative="1" as="geometry" />
        </mxCell>
        <mxCell id="TB_R96-AKjUNl865deA2-165" value="" style="edgeStyle=orthogonalEdgeStyle;rounded=0;orthogonalLoop=1;jettySize=auto;html=1;labelBackgroundColor=none;strokeColor=#A8201A;fontColor=default;" parent="1" source="TB_R96-AKjUNl865deA2-148" target="TB_R96-AKjUNl865deA2-158" edge="1">
          <mxGeometry relative="1" as="geometry" />
        </mxCell>
        <mxCell id="TB_R96-AKjUNl865deA2-148" value="&lt;font style=&quot;font-size: 18px;&quot;&gt;Home&lt;/font&gt;" style="ellipse;whiteSpace=wrap;html=1;fillColor=#FAE5C7;strokeColor=#0F8B8D;strokeWidth=2;labelBackgroundColor=none;fontColor=#143642;" parent="1" vertex="1">
          <mxGeometry x="590" y="-780" width="80" height="80" as="geometry" />
        </mxCell>
        <mxCell id="TB_R96-AKjUNl865deA2-154" value="" style="edgeStyle=orthogonalEdgeStyle;rounded=0;orthogonalLoop=1;jettySize=auto;html=1;labelBackgroundColor=none;strokeColor=#A8201A;fontColor=default;" parent="1" source="TB_R96-AKjUNl865deA2-151" target="TB_R96-AKjUNl865deA2-153" edge="1">
          <mxGeometry relative="1" as="geometry" />
        </mxCell>
        <mxCell id="TB_R96-AKjUNl865deA2-157" value="&lt;font style=&quot;font-size: 18px;&quot;&gt;Yes&lt;/font&gt;" style="edgeLabel;html=1;align=center;verticalAlign=middle;resizable=0;points=[];labelBackgroundColor=none;fontColor=#143642;" parent="TB_R96-AKjUNl865deA2-154" vertex="1" connectable="0">
          <mxGeometry x="-0.0187" y="-3" relative="1" as="geometry">
            <mxPoint x="-1" as="offset" />
          </mxGeometry>
        </mxCell>
        <mxCell id="TB_R96-AKjUNl865deA2-151" value="&lt;font style=&quot;font-size: 12px;&quot;&gt;User Account?&lt;/font&gt;" style="rhombus;whiteSpace=wrap;html=1;fillColor=#FAE5C7;strokeColor=#0F8B8D;strokeWidth=2;labelBackgroundColor=none;fontColor=#143642;" parent="1" vertex="1">
          <mxGeometry x="420" y="-700" width="80" height="80" as="geometry" />
        </mxCell>
        <mxCell id="TB_R96-AKjUNl865deA2-153" value="&lt;font style=&quot;font-size: 18px;&quot;&gt;User account&lt;/font&gt;" style="ellipse;whiteSpace=wrap;html=1;fillColor=#FAE5C7;strokeColor=#0F8B8D;strokeWidth=2;labelBackgroundColor=none;fontColor=#143642;" parent="1" vertex="1">
          <mxGeometry x="420" y="-550" width="80" height="80" as="geometry" />
        </mxCell>
        <mxCell id="TB_R96-AKjUNl865deA2-161" value="" style="edgeStyle=orthogonalEdgeStyle;rounded=0;orthogonalLoop=1;jettySize=auto;html=1;labelBackgroundColor=none;strokeColor=#A8201A;fontColor=default;" parent="1" source="TB_R96-AKjUNl865deA2-158" target="TB_R96-AKjUNl865deA2-160" edge="1">
          <mxGeometry relative="1" as="geometry" />
        </mxCell>
        <mxCell id="TB_R96-AKjUNl865deA2-162" value="&lt;font style=&quot;font-size: 18px;&quot;&gt;Yes&lt;/font&gt;" style="edgeLabel;html=1;align=center;verticalAlign=middle;resizable=0;points=[];labelBackgroundColor=none;fontColor=#143642;" parent="TB_R96-AKjUNl865deA2-161" vertex="1" connectable="0">
          <mxGeometry x="-0.1291" y="-1" relative="1" as="geometry">
            <mxPoint as="offset" />
          </mxGeometry>
        </mxCell>
        <mxCell id="TB_R96-AKjUNl865deA2-158" value="Single category courses?" style="rhombus;whiteSpace=wrap;html=1;fillColor=#FAE5C7;strokeColor=#0F8B8D;strokeWidth=2;labelBackgroundColor=none;fontColor=#143642;" parent="1" vertex="1">
          <mxGeometry x="590" y="-640" width="80" height="80" as="geometry" />
        </mxCell>
        <mxCell id="TB_R96-AKjUNl865deA2-167" value="" style="edgeStyle=orthogonalEdgeStyle;rounded=0;orthogonalLoop=1;jettySize=auto;html=1;labelBackgroundColor=none;strokeColor=#A8201A;fontColor=default;" parent="1" source="TB_R96-AKjUNl865deA2-160" target="TB_R96-AKjUNl865deA2-166" edge="1">
          <mxGeometry relative="1" as="geometry" />
        </mxCell>
        <mxCell id="TB_R96-AKjUNl865deA2-160" value="&lt;font style=&quot;font-size: 18px;&quot;&gt;Single category courses&lt;/font&gt;" style="ellipse;whiteSpace=wrap;html=1;fillColor=#FAE5C7;strokeColor=#0F8B8D;strokeWidth=2;labelBackgroundColor=none;fontColor=#143642;" parent="1" vertex="1">
          <mxGeometry x="585" y="-500" width="90" height="91" as="geometry" />
        </mxCell>
        <mxCell id="TB_R96-AKjUNl865deA2-169" value="" style="edgeStyle=orthogonalEdgeStyle;rounded=0;orthogonalLoop=1;jettySize=auto;html=1;labelBackgroundColor=none;strokeColor=#A8201A;fontColor=default;" parent="1" source="TB_R96-AKjUNl865deA2-166" target="TB_R96-AKjUNl865deA2-168" edge="1">
          <mxGeometry relative="1" as="geometry" />
        </mxCell>
        <mxCell id="TB_R96-AKjUNl865deA2-170" value="&lt;font style=&quot;font-size: 18px;&quot;&gt;Yes&lt;/font&gt;" style="edgeLabel;html=1;align=center;verticalAlign=middle;resizable=0;points=[];labelBackgroundColor=none;fontColor=#143642;" parent="TB_R96-AKjUNl865deA2-169" vertex="1" connectable="0">
          <mxGeometry x="0.05" y="2" relative="1" as="geometry">
            <mxPoint x="-1" as="offset" />
          </mxGeometry>
        </mxCell>
        <mxCell id="TB_R96-AKjUNl865deA2-166" value="if course chosen?" style="rhombus;whiteSpace=wrap;html=1;fillColor=#FAE5C7;strokeColor=#0F8B8D;strokeWidth=2;labelBackgroundColor=none;fontColor=#143642;" parent="1" vertex="1">
          <mxGeometry x="590" y="-380" width="80" height="80" as="geometry" />
        </mxCell>
        <mxCell id="TB_R96-AKjUNl865deA2-185" value="" style="edgeStyle=orthogonalEdgeStyle;rounded=0;orthogonalLoop=1;jettySize=auto;html=1;strokeColor=#A8201A;fontColor=#143642;fillColor=#FAE5C7;" parent="1" source="TB_R96-AKjUNl865deA2-168" target="TB_R96-AKjUNl865deA2-184" edge="1">
          <mxGeometry relative="1" as="geometry" />
        </mxCell>
        <mxCell id="TB_R96-AKjUNl865deA2-168" value="&lt;font style=&quot;font-size: 18px;&quot;&gt;Single course&lt;/font&gt;" style="ellipse;whiteSpace=wrap;html=1;fillColor=#FAE5C7;strokeColor=#0F8B8D;strokeWidth=2;labelBackgroundColor=none;fontColor=#143642;" parent="1" vertex="1">
          <mxGeometry x="590" y="-230" width="80" height="80" as="geometry" />
        </mxCell>
        <mxCell id="TB_R96-AKjUNl865deA2-193" value="" style="edgeStyle=orthogonalEdgeStyle;rounded=0;orthogonalLoop=1;jettySize=auto;html=1;strokeColor=#A8201A;fontColor=#143642;fillColor=#FAE5C7;" parent="1" source="TB_R96-AKjUNl865deA2-184" target="TB_R96-AKjUNl865deA2-192" edge="1">
          <mxGeometry relative="1" as="geometry" />
        </mxCell>
        <mxCell id="TB_R96-AKjUNl865deA2-194" value="&lt;font style=&quot;font-size: 18px;&quot;&gt;Yes&lt;/font&gt;" style="edgeLabel;html=1;align=center;verticalAlign=middle;resizable=0;points=[];fontColor=#143642;" parent="TB_R96-AKjUNl865deA2-193" vertex="1" connectable="0">
          <mxGeometry x="0.0188" y="-1" relative="1" as="geometry">
            <mxPoint as="offset" />
          </mxGeometry>
        </mxCell>
        <mxCell id="TB_R96-AKjUNl865deA2-184" value="if he clicked enroll" style="rhombus;whiteSpace=wrap;html=1;fillColor=#FAE5C7;strokeColor=#0F8B8D;fontColor=#143642;strokeWidth=2;labelBackgroundColor=none;" parent="1" vertex="1">
          <mxGeometry x="569" y="-111" width="120" height="80" as="geometry" />
        </mxCell>
        <mxCell id="TB_R96-AKjUNl865deA2-196" value="" style="edgeStyle=orthogonalEdgeStyle;rounded=0;orthogonalLoop=1;jettySize=auto;html=1;strokeColor=#A8201A;fontColor=#143642;fillColor=#FAE5C7;" parent="1" source="TB_R96-AKjUNl865deA2-192" target="TB_R96-AKjUNl865deA2-195" edge="1">
          <mxGeometry relative="1" as="geometry" />
        </mxCell>
        <mxCell id="TB_R96-AKjUNl865deA2-197" value="please complete&lt;br&gt;&amp;nbsp;your current&lt;br&gt;&amp;nbsp;course" style="edgeLabel;html=1;align=center;verticalAlign=middle;resizable=0;points=[];fontColor=#143642;" parent="TB_R96-AKjUNl865deA2-196" vertex="1" connectable="0">
          <mxGeometry x="-0.01" y="2" relative="1" as="geometry">
            <mxPoint x="33" y="2" as="offset" />
          </mxGeometry>
        </mxCell>
        <mxCell id="TB_R96-AKjUNl865deA2-198" value="&lt;font style=&quot;font-size: 18px;&quot;&gt;Yes&lt;/font&gt;" style="edgeLabel;html=1;align=center;verticalAlign=middle;resizable=0;points=[];fontColor=#143642;" parent="TB_R96-AKjUNl865deA2-196" vertex="1" connectable="0">
          <mxGeometry x="-0.5843" relative="1" as="geometry">
            <mxPoint x="-1" as="offset" />
          </mxGeometry>
        </mxCell>
        <mxCell id="TB_R96-AKjUNl865deA2-200" value="" style="edgeStyle=orthogonalEdgeStyle;rounded=0;orthogonalLoop=1;jettySize=auto;html=1;strokeColor=#A8201A;fontColor=#143642;fillColor=#FAE5C7;" parent="1" source="TB_R96-AKjUNl865deA2-192" target="TB_R96-AKjUNl865deA2-199" edge="1">
          <mxGeometry relative="1" as="geometry" />
        </mxCell>
        <mxCell id="TB_R96-AKjUNl865deA2-201" value="&lt;font style=&quot;font-size: 18px;&quot;&gt;No&lt;/font&gt;" style="edgeLabel;html=1;align=center;verticalAlign=middle;resizable=0;points=[];fontColor=#143642;" parent="TB_R96-AKjUNl865deA2-200" vertex="1" connectable="0">
          <mxGeometry x="-0.5713" y="-1" relative="1" as="geometry">
            <mxPoint y="-13" as="offset" />
          </mxGeometry>
        </mxCell>
        <mxCell id="TB_R96-AKjUNl865deA2-192" value="if he enrolled in another course?" style="rhombus;whiteSpace=wrap;html=1;fillColor=#FAE5C7;strokeColor=#0F8B8D;fontColor=#143642;strokeWidth=2;labelBackgroundColor=none;" parent="1" vertex="1">
          <mxGeometry x="770" y="-111" width="120" height="80" as="geometry" />
        </mxCell>
        <mxCell id="TB_R96-AKjUNl865deA2-195" value="Home" style="ellipse;whiteSpace=wrap;html=1;fillColor=#FAE5C7;strokeColor=#0F8B8D;fontColor=#143642;strokeWidth=2;labelBackgroundColor=none;" parent="1" vertex="1">
          <mxGeometry x="1068" y="-111" width="80" height="80" as="geometry" />
        </mxCell>
        <mxCell id="TB_R96-AKjUNl865deA2-199" value="Course Screen&lt;br&gt;" style="ellipse;whiteSpace=wrap;html=1;fillColor=#FAE5C7;strokeColor=#0F8B8D;fontColor=#143642;strokeWidth=2;labelBackgroundColor=none;" parent="1" vertex="1">
          <mxGeometry x="790" y="-239" width="80" height="80" as="geometry" />
        </mxCell>
        <mxCell id="TB_R96-AKjUNl865deA2-204" value="&lt;font style=&quot;font-size: 24px;&quot;&gt;FlowChart&lt;/font&gt;" style="whiteSpace=wrap;html=1;strokeColor=#0F8B8D;fontColor=#143642;fillColor=#FAE5C7;" parent="1" vertex="1">
          <mxGeometry x="50" y="-1140" width="120" height="60" as="geometry" />
        </mxCell>
        <mxCell id="TB_R96-AKjUNl865deA2-205" value="&lt;br&gt;&lt;font style=&quot;font-size: 24px;&quot;&gt;UML&lt;/font&gt;" style="rounded=1;whiteSpace=wrap;html=1;absoluteArcSize=1;arcSize=14;strokeWidth=2;strokeColor=#0F8B8D;fontColor=#143642;fillColor=#FAE5C7;" parent="1" vertex="1">
          <mxGeometry x="30" y="40" width="180" height="50" as="geometry" />
        </mxCell>
        <mxCell id="TB_R96-AKjUNl865deA2-207" value="1-design the platform screens at XD.&#xa;2-coding design screens at editor with MVVM design pattern for organizing code files.&#xa;3-choosing a suitable state management for passing states throughout your code in a clean way.&#xa;&#xa;" style="text;whiteSpace=wrap;fontColor=#143642;fontSize=28;" parent="1" vertex="1">
          <mxGeometry x="14" y="-2124" width="800" height="280" as="geometry" />
        </mxCell>
        <mxCell id="TB_R96-AKjUNl865deA2-209" value="&lt;font style=&quot;font-size: 35px;&quot;&gt;Requirements are:&lt;/font&gt;" style="rounded=1;whiteSpace=wrap;html=1;absoluteArcSize=1;arcSize=14;strokeWidth=2;strokeColor=#0F8B8D;fontColor=#143642;fillColor=#FAE5C7;" parent="1" vertex="1">
          <mxGeometry x="20" y="-2190" width="350" height="50" as="geometry" />
        </mxCell>
      </root>
    </mxGraphModel>
  </diagram>
</mxfile>
